<svg width="111" height="111" viewBox="0 0 111 111" fill="none" xmlns="http://www.w3.org/2000/svg">
<rect width="111" height="111" rx="55.5" fill="#0872BA"/>
<path fill-rule="evenodd" clip-rule="evenodd" d="M55.4987 78.0887L57.2716 76.0911C59.2832 73.7873 61.0925 71.6015 62.7024 69.5224L64.0313 67.7693C69.5801 60.2932 72.3559 54.3594 72.3559 49.9738C72.3559 40.6124 64.8095 33.0239 55.4987 33.0239C46.188 33.0239 38.6416 40.6124 38.6416 49.9738C38.6416 54.3594 41.4174 60.2932 46.9662 67.7693L48.2951 69.5224C50.5917 72.4651 52.9945 75.3205 55.4987 78.0887Z" stroke="white" stroke-width="2.80952" stroke-linecap="round" stroke-linejoin="round"/>
<path d="M55.4984 56.905C59.3776 56.905 62.5222 53.7604 62.5222 49.8812C62.5222 46.0021 59.3776 42.8574 55.4984 42.8574C51.6193 42.8574 48.4746 46.0021 48.4746 49.8812C48.4746 53.7604 51.6193 56.905 55.4984 56.905Z" stroke="white" stroke-width="2.80952" stroke-linecap="round" stroke-linejoin="round"/>
</svg>
