<svg width="111" height="111" viewBox="0 0 111 111" fill="none" xmlns="http://www.w3.org/2000/svg">
<rect width="111" height="111" rx="55.5" fill="#0872BA"/>
<path d="M75.3125 73.625H34.6875C32.0938 73.625 30 71.5312 30 68.9375V40.8125C30 38.2188 32.0938 36.125 34.6875 36.125H75.3125C77.9062 36.125 80 38.2188 80 40.8125V68.9375C80 71.5312 77.9062 73.625 75.3125 73.625ZM34.6875 39.25C33.8125 39.25 33.125 39.9375 33.125 40.8125V68.9375C33.125 69.8125 33.8125 70.5 34.6875 70.5H75.3125C76.1875 70.5 76.875 69.8125 76.875 68.9375V40.8125C76.875 39.9375 76.1875 39.25 75.3125 39.25H34.6875Z" fill="white"/>
<path d="M55.0017 61.0002C52.8142 61.0002 50.8142 60.1252 49.3142 58.5314L32.9079 41.0939C32.3142 40.4689 32.3454 39.4689 32.9704 38.8752C33.5954 38.2814 34.5954 38.3127 35.1892 38.9377L51.5954 56.3752C53.3767 58.2814 56.6267 58.2814 58.4079 56.3752L74.8142 38.9689C75.4079 38.3439 76.4079 38.3127 77.0329 38.9064C77.6579 39.5002 77.6892 40.5002 77.0954 41.1252L60.6892 58.5627C59.1892 60.1564 57.1892 61.0314 55.0017 61.0314V61.0002Z" fill="white"/>
</svg>
