<svg width="111" height="111" viewBox="0 0 111 111" fill="none" xmlns="http://www.w3.org/2000/svg">
<rect width="111" height="111" rx="55.5" fill="#0872BA"/>
<g clip-path="url(#clip0_139_111)">
<path d="M68.7507 37.4998C67.7561 37.4998 66.8023 37.8949 66.099 38.5982C65.3958 39.3014 65.0007 40.2552 65.0007 41.2498C65.0007 42.2444 65.3958 43.1982 66.099 43.9015C66.8023 44.6047 67.7561 44.9998 68.7507 44.9998C69.7452 44.9998 70.6991 44.6047 71.4023 43.9015C72.1056 43.1982 72.5007 42.2444 72.5007 41.2498C72.5007 40.2552 72.1056 39.3014 71.4023 38.5982C70.6991 37.8949 69.7452 37.4998 68.7507 37.4998ZM62.5007 41.2498C62.5005 39.7834 63.0159 38.3636 63.9568 37.2388C64.8977 36.1141 66.2042 35.356 67.6476 35.0972C69.091 34.8383 70.5794 35.0953 71.8525 35.8231C73.1256 36.5508 74.1022 37.7031 74.6115 39.0782C75.1209 40.4533 75.1305 41.9638 74.6387 43.3452C74.1468 44.7267 73.1849 45.8913 71.9212 46.6352C70.6574 47.3791 69.1724 47.6549 67.7258 47.4144C66.2792 47.174 64.9633 46.4325 64.0082 45.3198L47.2132 53.1198C47.5991 54.3434 47.5991 55.6562 47.2132 56.8798L64.0082 64.6798C65.0178 63.5056 66.4273 62.7481 67.9636 62.5539C69.5 62.3598 71.0537 62.7429 72.3236 63.629C73.5936 64.5152 74.4893 65.8412 74.8373 67.3501C75.1853 68.8591 74.9607 70.4435 74.2071 71.7962C73.4535 73.149 72.2245 74.1739 70.7584 74.6722C69.2922 75.1705 67.6932 75.1068 66.2714 74.4933C64.8495 73.8799 63.706 72.7605 63.0624 71.352C62.4189 69.9435 62.3212 68.3463 62.7882 66.8698L45.9932 59.0698C45.1617 60.0387 44.0535 60.7298 42.8176 61.05C41.5817 61.3703 40.2773 61.3043 39.08 60.861C37.8827 60.4177 36.8499 59.6184 36.1204 58.5705C35.391 57.5227 35 56.2765 35 54.9998C35 53.7231 35.391 52.477 36.1204 51.4291C36.8499 50.3812 37.8827 49.5819 39.08 49.1386C40.2773 48.6953 41.5817 48.6294 42.8176 48.9496C44.0535 49.2698 45.1617 49.9609 45.9932 50.9298L62.7882 43.1298C62.597 42.5215 62.5 41.8875 62.5007 41.2498ZM41.2507 51.2498C40.2561 51.2498 39.3023 51.6449 38.599 52.3482C37.8958 53.0514 37.5007 54.0052 37.5007 54.9998C37.5007 55.9944 37.8958 56.9482 38.599 57.6515C39.3023 58.3547 40.2561 58.7498 41.2507 58.7498C42.2452 58.7498 43.1991 58.3547 43.9023 57.6515C44.6056 56.9482 45.0007 55.9944 45.0007 54.9998C45.0007 54.0052 44.6056 53.0514 43.9023 52.3482C43.1991 51.6449 42.2452 51.2498 41.2507 51.2498ZM68.7507 64.9998C67.7561 64.9998 66.8023 65.3949 66.099 66.0982C65.3958 66.8014 65.0007 67.7552 65.0007 68.7498C65.0007 69.7444 65.3958 70.6982 66.099 71.4015C66.8023 72.1047 67.7561 72.4998 68.7507 72.4998C69.7452 72.4998 70.6991 72.1047 71.4023 71.4015C72.1056 70.6982 72.5007 69.7444 72.5007 68.7498C72.5007 67.7552 72.1056 66.8014 71.4023 66.0982C70.6991 65.3949 69.7452 64.9998 68.7507 64.9998Z" fill="white"/>
</g>
<defs>
<clipPath id="clip0_139_111">
<rect width="40" height="40" fill="white" transform="translate(35 35)"/>
</clipPath>
</defs>
</svg>
